<svg width="17" height="17" viewBox="0 0 17 17" fill="none" xmlns="http://www.w3.org/2000/svg">
<g opacity="0.4">
<path d="M4.20325 8.94407V11.8532C4.20325 12.2548 4.52887 12.5804 4.93052 12.5804H7.83961C8.03248 12.5804 8.21745 12.5038 8.35384 12.3674L16.3538 4.36739C16.6378 4.08337 16.6378 3.62291 16.3538 3.33888L13.4447 0.429791C13.3084 0.293451 13.1234 0.216797 12.9305 0.216797C12.7376 0.216797 12.5526 0.293451 12.4163 0.429839L4.41629 8.42984C4.27985 8.56618 4.20325 8.7512 4.20325 8.94407ZM5.65779 9.2453L12.9305 1.97258L14.8111 3.85316L7.53837 11.1259H5.65779V9.2453Z" fill="black"/>
<path d="M15.8395 7.48957C15.4379 7.48957 15.1122 7.8152 15.1122 8.21685V14.7623H2.02132V1.67134H8.56677C8.96842 1.67134 9.29404 1.34572 9.29404 0.94407C9.29404 0.542421 8.96842 0.216797 8.56677 0.216797H1.29405C0.892397 0.216797 0.566772 0.542421 0.566772 0.94407V15.4895C0.566772 15.8912 0.892397 16.2168 1.29405 16.2168H15.8395C16.2411 16.2168 16.5668 15.8912 16.5668 15.4895V8.21685C16.5668 7.81515 16.2411 7.48957 15.8395 7.48957Z" fill="black"/>
</g>
</svg>
