<svg width="13" height="18" viewBox="0 0 13 18" fill="none" xmlns="http://www.w3.org/2000/svg">
<path d="M6.39339 0.810425C3.11087 0.810425 0.460205 3.46109 0.460205 6.74361C0.460205 7.88813 0.825813 8.98098 1.33449 9.87906L5.20119 16.5712C5.44361 17.0084 5.93241 17.227 6.39339 17.227C6.85442 17.227 7.31934 17.0084 7.58559 16.5712L11.4523 9.88304C11.9649 8.98487 12.3266 7.91189 12.3266 6.74751C12.3266 3.46506 9.67592 0.810425 6.39339 0.810425ZM6.39339 8.49615C5.20119 8.49615 4.22756 7.52252 4.22756 6.33032C4.22756 5.13812 5.20119 4.16448 6.39339 4.16448C7.58559 4.16448 8.55923 5.13812 8.55923 6.33032C8.55923 7.52649 7.58559 8.49615 6.39339 8.49615Z" fill="black"/>
</svg>
