<svg width="128" height="129" viewBox="0 0 128 129" fill="none" xmlns="http://www.w3.org/2000/svg">
<mask id="mask0_822_567" style="mask-type:alpha" maskUnits="userSpaceOnUse" x="0" y="0" width="128" height="129">
<circle cx="64" cy="64.4954" r="62.5" fill="#C4C4C4" stroke="black" stroke-width="3"/>
</mask>
<g mask="url(#mask0_822_567)">
<g clip-path="url(#clip0_822_567)">
<path d="M79.7317 123.05C75.6861 117.431 72.5207 106.568 72.1461 101.136L52.9012 92.848L44.8942 123.05H79.7317Z" fill="white" stroke="black" stroke-width="1.12379"/>
<mask id="mask1_822_567" style="mask-type:alpha" maskUnits="userSpaceOnUse" x="44" y="92" width="36" height="34">
<path d="M79.7317 125.86C75.6861 120.241 72.5207 106.568 72.1461 101.136L52.9012 92.848L44.8942 125.86H79.7317Z" fill="#AC6651"/>
</mask>
<g mask="url(#mask1_822_567)">
<g style="mix-blend-mode:multiply">
<ellipse cx="71.3032" cy="92.2862" rx="16.5759" ry="15.1712" fill="black"/>
</g>
</g>
<mask id="path-5-inside-1_822_567" fill="white">
<path fill-rule="evenodd" clip-rule="evenodd" d="M88.1284 75.6875C88.1207 75.6548 88.113 75.6222 88.1051 75.5895C88.0973 75.5568 88.0894 75.5242 88.0814 75.4915L83.4751 56.2656C83.4705 56.2463 83.4659 56.2269 83.4613 56.2076C83.4566 56.1883 83.452 56.169 83.4473 56.1498L83.4271 56.0652L83.4267 56.0653C80.5559 44.4215 68.8189 37.262 57.1387 40.0604C45.4585 42.8589 38.2403 54.56 40.9578 66.2405L40.9573 66.2406L45.7309 86.1649L45.7349 86.1639C48.7137 97.656 60.3638 104.69 71.9579 101.912C83.552 99.1342 90.7497 87.5845 88.1973 75.9903L88.2007 75.9895L88.1284 75.6875Z"/>
</mask>
<path fill-rule="evenodd" clip-rule="evenodd" d="M88.1284 75.6875C88.1207 75.6548 88.113 75.6222 88.1051 75.5895C88.0973 75.5568 88.0894 75.5242 88.0814 75.4915L83.4751 56.2656C83.4705 56.2463 83.4659 56.2269 83.4613 56.2076C83.4566 56.1883 83.452 56.169 83.4473 56.1498L83.4271 56.0652L83.4267 56.0653C80.5559 44.4215 68.8189 37.262 57.1387 40.0604C45.4585 42.8589 38.2403 54.56 40.9578 66.2405L40.9573 66.2406L45.7309 86.1649L45.7349 86.1639C48.7137 97.656 60.3638 104.69 71.9579 101.912C83.552 99.1342 90.7497 87.5845 88.1973 75.9903L88.2007 75.9895L88.1284 75.6875Z" fill="white"/>
<path d="M88.1284 75.6875L87.0343 75.9445L87.0355 75.9494L88.1284 75.6875ZM88.1051 75.5895L89.198 75.3277L89.198 75.3276L88.1051 75.5895ZM88.0814 75.4915L86.9886 75.7534L86.9898 75.7583L88.0814 75.4915ZM83.4751 56.2656L82.3815 56.5244L82.3822 56.5274L83.4751 56.2656ZM83.4613 56.2076L82.3684 56.4695L82.3684 56.4696L83.4613 56.2076ZM83.4473 56.1498L82.3544 56.4116L82.3551 56.4144L83.4473 56.1498ZM83.4271 56.0652L84.5199 55.8034L84.2579 54.7099L83.1646 54.9725L83.4271 56.0652ZM83.4267 56.0653L82.3356 56.3343L82.603 57.4189L83.6891 57.158L83.4267 56.0653ZM57.1387 40.0604L57.4005 41.1533L57.1387 40.0604ZM40.9578 66.2405L41.2184 67.3337L42.3057 67.0745L42.0524 65.9858L40.9578 66.2405ZM40.9573 66.2406L40.6967 65.1475L39.6023 65.4083L39.8644 66.5025L40.9573 66.2406ZM45.7309 86.1649L44.6381 86.4267L44.9 87.5199L45.9931 87.2576L45.7309 86.1649ZM45.7349 86.1639L46.8227 85.8819L46.5458 84.8137L45.4727 85.0711L45.7349 86.1639ZM71.9579 101.912L71.6961 100.819L71.6961 100.819L71.9579 101.912ZM88.1973 75.9903L87.9354 74.8974L86.8625 75.1545L87.0997 76.2319L88.1973 75.9903ZM88.2007 75.9895L88.4625 77.0823L89.5554 76.8205L89.2936 75.7276L88.2007 75.9895ZM89.2224 75.4306C89.2143 75.3963 89.2062 75.362 89.198 75.3277L87.0122 75.8513C87.0197 75.8823 87.0271 75.9134 87.0344 75.9445L89.2224 75.4306ZM89.198 75.3276C89.1898 75.2934 89.1815 75.2591 89.1731 75.2248L86.9898 75.7583C86.9973 75.7892 87.0048 75.8203 87.0123 75.8514L89.198 75.3276ZM82.3822 56.5274L86.9886 75.7534L89.1743 75.2297L84.5679 56.0037L82.3822 56.5274ZM84.5686 56.0067C84.5638 55.9865 84.559 55.9661 84.5541 55.9457L82.3684 56.4696C82.3728 56.4878 82.3771 56.5061 82.3815 56.5244L84.5686 56.0067ZM84.5541 55.9457C84.5492 55.9255 84.5444 55.9053 84.5395 55.8851L82.3551 56.4144C82.3596 56.4328 82.364 56.4512 82.3684 56.4695L84.5541 55.9457ZM82.3342 56.3271L82.3544 56.4116L84.5402 55.8879L84.5199 55.8034L82.3342 56.3271ZM83.6891 57.158L83.6895 57.158L83.1646 54.9725L83.1642 54.9726L83.6891 57.158ZM84.5178 55.7963C81.4993 43.5531 69.1582 36.0251 56.8768 38.9676L57.4005 41.1533C68.4795 38.4989 79.6126 45.29 82.3356 56.3343L84.5178 55.7963ZM56.8768 38.9676C44.5955 41.9101 37.0058 54.2133 39.8633 66.4952L42.0524 65.9858C39.4747 54.9066 46.3215 43.8077 57.4005 41.1533L56.8768 38.9676ZM41.2178 67.3338L41.2184 67.3337L40.6973 65.1473L40.6967 65.1475L41.2178 67.3338ZM46.8238 85.903L42.0501 65.9788L39.8644 66.5025L44.6381 86.4267L46.8238 85.903ZM45.4727 85.0711L45.4688 85.0721L45.9931 87.2576L45.997 87.2567L45.4727 85.0711ZM44.647 86.4459C47.7793 98.5298 60.0289 105.926 72.2198 103.005L71.6961 100.819C60.6988 103.454 49.6481 96.7821 46.8227 85.8819L44.647 86.4459ZM72.2198 103.005C84.4107 100.084 91.9786 87.94 89.2948 75.7487L87.0997 76.2319C89.5207 87.229 82.6934 98.1843 71.6961 100.819L72.2198 103.005ZM87.9389 74.8966L87.9354 74.8974L88.4591 77.0832L88.4625 77.0823L87.9389 74.8966ZM87.0355 75.9494L87.1079 76.2513L89.2936 75.7276L89.2212 75.4257L87.0355 75.9494Z" fill="black" mask="url(#path-5-inside-1_822_567)"/>
</g>
<path d="M52.0628 67.9883L42.3701 69.8496" stroke="black" stroke-width="1.12379" stroke-linecap="round"/>
<path d="M52.3358 61.2554L63.2131 59.7267C64.135 59.5972 64.9874 60.2395 65.117 61.1614L66.681 72.29C66.8106 73.2119 66.1682 74.0643 65.2463 74.1938L55.5613 75.555C54.7082 75.6749 53.902 75.1323 53.6919 74.2968L50.9356 63.3358C50.6912 62.364 51.3435 61.3949 52.3358 61.2554Z" stroke="black" stroke-width="1.12379"/>
<path d="M83.3657 56.9525L72.4883 58.4812C71.5664 58.6108 70.9241 59.4632 71.0537 60.3851L72.6177 71.5137C72.7472 72.4356 73.5996 73.0779 74.5216 72.9483L84.2066 71.5872C85.0596 71.4673 85.6851 70.7235 85.6567 69.8625L85.2851 58.5664C85.2521 57.5649 84.358 56.8131 83.3657 56.9525Z" stroke="black" stroke-width="1.12379"/>
<path d="M65.8293 66.4782L72.0102 65.4949" stroke="black" stroke-width="1.12379"/>
<path d="M85.968 42.2938C83.63 53.5028 55.997 55.0769 50.4281 55.0769C35.8125 56.742 42.8277 74.2842 45.5115 83.0312C43.4044 83.3122 43.6853 85.8407 35.5378 65.7529C29.0198 49.6827 47.4798 39.8881 61.1945 36.5633C74.9092 33.2385 80.1585 28.557 80.1585 28.557C85.968 30.9445 87.3555 35.6415 85.968 42.2938Z" fill="black"/>
<path d="M84.5509 62.9576L80.1067 47.9438L82.9269 45.3752C85.9487 55.795 86.0869 61.8455 84.5509 62.9576Z" fill="black"/>
<path d="M49.1085 75.7101C47.5351 68.0683 43.5831 69.4356 40.961 69.8102L38.1515 57.4485L49.5536 55.062C49.7648 54.9945 49.9909 54.9467 50.2323 54.9199L49.5536 55.062C44.4541 56.6896 47.9724 69.7527 52.1989 75.1482L49.1085 75.7101Z" fill="black"/>
<path d="M33.6533 46.8744C36.1384 45.623 39.0733 46.3474 40.2301 46.8659L36.9231 51.0465C37.7759 49.6821 35.0985 47.6966 33.6533 46.8744Z" fill="black"/>
<path d="M29.442 51.689C32.701 49.7785 35.857 50.4247 37.0276 50.9866L35.7633 55.3414C35.4262 52.9814 31.4087 51.9231 29.442 51.689Z" fill="black"/>
<path d="M74.1128 58.9176C75.7048 58.1684 79.4508 57.4848 81.6984 60.7438" stroke="black" stroke-width="1.12379" stroke-linecap="round"/>
<path d="M52.9234 66.0275C53.5051 64.367 55.6435 61.2163 59.5433 61.898" stroke="black" stroke-width="1.12379" stroke-linecap="round"/>
<path d="M69.8223 71.3165C69.8223 75.2498 71.7889 78.3402 71.7889 78.3402C71.7889 78.3402 70.8056 80.0259 67.9961 79.464" stroke="#171921" stroke-width="1.12379"/>
<path d="M24.3928 129.086H103.199C97.4297 120.589 88.3035 114.898 75.8014 113.212C70.6595 112.519 64.8444 121.5 64.8444 121.5C64.8444 121.5 51.4142 111.04 46.8637 112.078C35.7926 114.602 29.0684 120.226 24.3928 129.086Z" fill="black"/>
<path d="M43.6645 113.377L45.116 107.974C45.1748 107.755 45.4579 107.693 45.6107 107.86C49.7865 112.43 55.0561 112.251 56.8051 112.041C57.0425 112.012 57.2284 112.272 57.1169 112.484L53.4205 119.494C53.3638 119.602 53.2478 119.661 53.1289 119.636C52.0196 119.405 46.4921 118.054 43.697 113.596C43.6561 113.531 43.6445 113.451 43.6645 113.377Z" fill="#53506B" stroke="black" stroke-width="1.12379"/>
<path d="M80.3513 113.348L77.0978 107.874C76.9873 107.688 76.7152 107.691 76.5975 107.873C74.9857 110.355 72.2058 111.499 71.2337 111.837C71.0588 111.897 70.9788 112.105 71.0731 112.264L74.8666 118.674C74.9232 118.77 75.0302 118.822 75.1371 118.791C75.7368 118.62 77.7949 117.76 80.3477 113.64C80.4025 113.551 80.4045 113.437 80.3513 113.348Z" fill="#53506B" stroke="black" stroke-width="1.12379"/>
<path d="M59.6468 118.27L57.1182 112.229L55.1516 116.443L59.6468 118.27Z" fill="black" stroke="black" stroke-width="1.12379" stroke-linejoin="round"/>
<path d="M68.4968 117.989L71.0253 111.948L72.9919 116.162L68.4968 117.989Z" fill="black" stroke="black" stroke-width="1.12379" stroke-linejoin="round"/>
<path d="M48.6899 106.891L45.3185 107.734L48.128 109.56L48.6899 106.891Z" fill="black" stroke="black" stroke-width="1.12379" stroke-linejoin="round"/>
<path d="M73.8346 106.891L76.925 107.734L74.9584 109.56L73.8346 106.891Z" fill="black" stroke="black" stroke-width="1.12379" stroke-linejoin="round"/>
<path d="M64.842 85.8693C66.23 87.6805 68.3334 89.687 71.578 89.2295C74.8227 88.7719 76.2663 86.5337 75.8407 84.7211" stroke="black" stroke-width="1.12379"/>
<ellipse cx="58.6305" cy="67.9751" rx="2.52853" ry="2.80948" transform="rotate(-6.77646 58.6305 67.9751)" fill="black"/>
<ellipse cx="76.6198" cy="65.1647" rx="2.52853" ry="2.80948" transform="rotate(-6.27568 76.6198 65.1647)" fill="black"/>
<path d="M77.7276 95.3443C78.473 98.4553 76.5552 101.582 73.4441 102.327C71.6132 102.766 69.7771 102.282 68.424 101.176C67.0735 99.9276 66.7593 95.882 66.4602 93.9692C67.5599 96.4437 70.3584 96.6357 73.0195 96.1688C75.2583 95.776 77.0492 95.6974 77.0492 92.6338C77.1974 92.8393 77.5974 94.8009 77.7276 95.3443Z" fill="black"/>
<path d="M44.7521 69.0159C44.0974 68.8004 43.3908 68.6857 42.6674 68.6857C39.7193 68.6857 37.3294 70.5118 37.6104 73.8832C37.903 77.3951 40.0003 78.6593 42.9484 78.6593C43.2764 78.6593 43.5975 78.6305 43.9092 78.5753C44.2493 78.5152 44.5782 78.4236 44.8925 78.3038" stroke="#171921" stroke-width="2.24758"/>
<path d="M45.033 78.2481C44.3926 78.5128 43.688 78.6593 42.9484 78.6593C40.0003 78.6593 37.903 77.3951 37.6104 73.8832C37.3294 70.5118 39.7193 68.6857 42.6674 68.6857C43.5489 68.6857 44.4056 68.856 45.1735 69.1716L45.033 78.2481Z" fill="white"/>
<path d="M43.9092 71.0738C42.7854 70.5587 40.3131 70.2871 39.4141 73.3213" stroke="#171921" stroke-width="1.12379"/>
<path d="M40.9592 71.2141C41.5679 71.7292 42.7292 73.3212 42.5044 75.5688" stroke="#171921" stroke-width="1.12379"/>
</g>
<defs>
<clipPath id="clip0_822_567">
<rect width="56.1896" height="89.9033" fill="white" transform="translate(36.4657 33.2871)"/>
</clipPath>
</defs>
</svg>
