<svg width="19" height="17" viewBox="0 0 19 17" fill="none" xmlns="http://www.w3.org/2000/svg">
<path opacity="0.4" d="M2.04691 16.2168L0.908569 15.7109C1.22477 14.952 2.23663 14.5093 3.31173 14.0034C4.38683 13.4974 5.71489 12.9283 5.71489 12.2326V11.284C5.33545 10.9678 4.70304 10.2721 4.57655 9.26027C4.26035 8.94407 3.75442 8.3749 3.75442 7.61601C3.75442 7.17332 3.94414 6.79387 4.07062 6.54091C3.94414 6.03498 3.81766 5.08636 3.81766 4.32747C3.81766 1.86107 5.52517 0.216797 8.24454 0.216797C9.00343 0.216797 9.95205 0.40652 10.458 0.97569C11.6596 1.22865 12.6714 2.61996 12.6714 4.32747C12.6714 5.40257 12.4817 6.28794 12.3552 6.73063C12.4817 6.92035 12.6082 7.23656 12.6082 7.61601C12.6082 8.43814 12.1655 9.00731 11.786 9.26027C11.6596 10.2721 11.0904 10.9045 10.7109 11.2207V12.2326C10.7109 12.8018 11.8493 13.2445 12.8611 13.6239C14.0627 14.0666 15.3275 14.5725 15.7702 15.5844L14.5686 16.0271C14.3789 15.5211 13.3671 15.1417 12.4185 14.8255C11.0271 14.3196 9.44612 13.7504 9.44612 12.2958V10.6516L9.76233 10.4619C9.76233 10.4619 10.5212 9.95593 10.5212 8.94407V8.50138L10.9007 8.31166C10.9639 8.31166 11.2801 8.12194 11.2801 7.61601C11.2801 7.48952 11.1536 7.2998 11.0904 7.23656L10.8374 6.9836L10.9639 6.66739C10.9639 6.66739 11.2801 5.65553 11.2801 4.39071C11.2801 3.18913 10.5845 2.30375 10.0153 2.30375H9.63584L9.44612 1.98755C9.44612 1.73458 9.00343 1.48162 8.24454 1.48162C6.28406 1.48162 5.08248 2.55672 5.08248 4.32747C5.08248 5.1496 5.39869 6.54091 5.39869 6.54091L5.46193 6.85711L5.20896 7.17332C5.14572 7.17332 5.01924 7.36304 5.01924 7.61601C5.01924 7.93221 5.39869 8.31166 5.58841 8.43814L5.84138 8.62786V8.94407C5.84138 9.89269 6.66351 10.3986 6.66351 10.4619L6.97972 10.6516V12.2958C6.97972 13.8136 5.33545 14.5725 3.81766 15.2049C3.12201 15.4579 2.17339 15.9006 2.04691 16.2168V16.2168Z" fill="black"/>
<path opacity="0.4" d="M15.7923 8.2168V10.5762M15.7923 10.5762V12.9357M15.7923 10.5762H18.1517M15.7923 10.5762H13.4329" stroke="black" stroke-width="1.2" stroke-linecap="round"/>
</svg>
